<svg xmlns="http://www.w3.org/2000/svg" width="32" height="32" viewBox="0 0 32 32"><path style='fill: #fff; fill-rule: evenodd;' d="M82.9,505.88a2,2,0,1,0,2,2A2,2,0,0,0,82.9,505.88ZM97,506a2.769,2.769,0,0,1-2.642-1.837,11.831,11.831,0,0,0-.607-1.467,2.779,2.779,0,0,1,.564-3.181,2,2,0,0,0,0-2.829h0a2,2,0,0,0-2.828,0h0a2.778,2.778,0,0,1-3.181.564,11.913,11.913,0,0,0-1.468-.608A2.77,2.77,0,0,1,85,494a2,2,0,0,0-4,0,2.77,2.77,0,0,1-1.836,2.642,11.9,11.9,0,0,0-1.468.608,2.778,2.778,0,0,1-3.181-.564,2,2,0,0,0-2.829,0h0a2,2,0,0,0,0,2.829,2.778,2.778,0,0,1,.564,3.181,11.846,11.846,0,0,0-.607,1.467A2.769,2.769,0,0,1,69,506a2,2,0,0,0,0,4,2.77,2.77,0,0,1,2.642,1.836,11.8,11.8,0,0,0,.607,1.468,2.778,2.778,0,0,1-.564,3.181,2,2,0,0,0,2.829,2.829,2.778,2.778,0,0,1,3.181-.564,11.9,11.9,0,0,0,1.468.608A2.77,2.77,0,0,1,81,522a2,2,0,0,0,4,0,2.77,2.77,0,0,1,1.837-2.642,11.908,11.908,0,0,0,1.468-.608,2.778,2.778,0,0,1,3.181.564h0a2,2,0,0,0,2.828-2.829,2.779,2.779,0,0,1-.564-3.181,11.782,11.782,0,0,0,.607-1.468A2.77,2.77,0,0,1,97,510,2,2,0,1,0,97,506Zm-21.079,9.056a9.995,9.995,0,1,1,16.8-9.355C94.2,511.939,80.446,519.6,75.921,515.056Z" transform="translate(-67 -492)"/></svg>