<svg xmlns="http://www.w3.org/2000/svg" width="32" height="32" viewBox="0 0 32 32"><path style='fill: #fff; fill-rule: evenodd;' d="M597.6,283.187l-0.6-.6-5.188-5.188a4.787,4.787,0,0,0-3.385-1.4H578a3,3,0,0,0-3,3v26a3,3,0,0,0,3,3h18a3,3,0,0,0,3-3V286.573A4.789,4.789,0,0,0,597.6,283.187ZM597,290v6c0,4.714-5.286,10-10,10h-4c-2.582,0-6-2.318-6-4.9V282.25a4.25,4.25,0,0,1,4.25-4.25h4.742A3.384,3.384,0,0,1,589,281.008v2.711A2.281,2.281,0,0,0,591.281,286h2.938A3.256,3.256,0,0,1,597,289v1Z" transform="translate(-571 -276)"/></svg>