<svg xmlns="http://www.w3.org/2000/svg" width="32" height="32" viewBox="0 0 32 32"><path style='fill: #000; fill-rule: evenodd;' class="cls-1" d="M603,507.975a15.9,15.9,0,0,0-1.224-6.128c-0.59-1.418,1.018-3.52-.069-4.606l-3.958-3.952c-1.087-1.085-3.193.52-4.612-.069a16.046,16.046,0,0,0-12.274,0c-1.42.589-3.525-1.016-4.612,0.069l-3.958,3.952c-1.087,1.086.521,3.188-.069,4.606a15.935,15.935,0,0,0,2.259,16.068c0.944,1.182,1.525,3.226.685,4.484a1,1,0,0,0,1.664,1.108c0.83-1.246,3.055-1.149,4.454-.612a15.326,15.326,0,0,0,11.428,0c1.4-.537,3.624-0.634,4.454.612a1,1,0,0,0,1.664-1.108c-0.84-1.258-.259-3.3.685-4.484A15.867,15.867,0,0,0,603,507.975Zm-22.055,12.6A13.985,13.985,0,1,1,601,507.975C601,515.862,588.062,524,580.945,520.578Zm11.608-14.961-0.514.256A2.79,2.79,0,0,1,588,503.381v-3.395a1,1,0,0,0-2,0v8.121a1.87,1.87,0,0,0,1.864,1.865,1.877,1.877,0,0,0,.836-0.2l4.747-2.371A1,1,0,1,0,592.553,505.617Z" transform="translate(-571 -492)"/></svg>