<svg xmlns="http://www.w3.org/2000/svg" width="32" height="32" viewBox="0 0 32 32"><path style='fill: #263238; fill-rule: evenodd;' d="M385,82a2,2,0,0,0-2,2c0,1.624.659,6-4,6H363c-4.659,0-4-4.376-4-6a2,2,0,1,0-4,0c0,2.008,1.807,8,8,8h16c6.193,0,8-5.992,8-8A2,2,0,0,0,385,82Zm-6.479-7a1.568,1.568,0,0,0-1.063.439c-0.545.546-1.169,1.875-1.835,2.541l-1.277,1.274a1.367,1.367,0,0,1-2.334-.966V69c0-2.232,1.009-5.3,1.009-7a2.022,2.022,0,0,0-4.043,0c0,1.7,1.01,4.768,1.01,7v9.289a1.367,1.367,0,0,1-2.334.966l-1.277-1.274c-0.666-.666-1.29-2-1.835-2.541A1.568,1.568,0,0,0,363.478,75,1.419,1.419,0,0,0,362,76.5a1.473,1.473,0,0,0,.418,1.061c0.492,0.492,1.878,1.169,2.546,1.836,0,0,2.884,2.879,4.036,4.03,0.866,0.866.593,2.573,2,2.573,1.434,0,1.133-1.707,2-2.573,1.152-1.152,4.036-4.03,4.036-4.03,0.668-.667,2.054-1.344,2.546-1.836A1.473,1.473,0,0,0,380,76.5,1.419,1.419,0,0,0,378.521,75Z" transform="translate(-355 -60)"/></svg>